<svg width="52" height="51" viewBox="0 0 52 51" fill="none" xmlns="http://www.w3.org/2000/svg">
<rect x="0.291016" width="50.7959" height="51" rx="15" fill="#5AC8FA" fill-opacity="0.15"/>
<path d="M14.4655 17.9956L25.467 15.0003L27.968 2.99993L30.967 15.0003L41.4656 16.9956L30.967 20.0874L27.974 33.0816L25.467 20.0874L14.4655 17.9956Z" fill="#FFFF00" fill-opacity="0.8"/>
<path opacity="0.6" d="M26.7698 37.9135L32.2836 36.0647L33.9024 30L34.9917 35.8872L40.0968 36.5433L34.8275 38.4239L32.9344 45.0001L32.1194 38.6014L26.7698 37.9135Z" fill="#FFFF00" fill-opacity="0.8"/>
<path d="M8.78689 32.0132L14.9745 30.6966L15.9942 24.0005L18.1192 30.8847L24.1899 32.3713L18.2931 33.7596L17.0262 41.0005L15.1485 33.5715L8.78689 32.0132Z" fill="#FFFF00" fill-opacity="0.8"/>
<line x1="27.9883" y1="7.98679" x2="28.009" y2="28.0118" stroke="white"/>
<line x1="33.4492" y1="34" x2="33.4492" y2="41" stroke="white" stroke-width="0.5"/>
<line x1="16.5508" y1="27" x2="16.5508" y2="37" stroke="white" stroke-width="0.5"/>
<line x1="21" y1="17.5" x2="36" y2="17.5" stroke="white"/>
<line x1="29.9748" y1="37.5579" x2="37.934" y2="36.751" stroke="white" stroke-width="0.5"/>
<line x1="12.9828" y1="32.1162" x2="20.9824" y2="32.1905" stroke="white" stroke-width="0.5"/>
</svg>
